<?xml version="1.0" encoding="utf-8" standalone="no"?>
<!DOCTYPE svg PUBLIC "-//W3C//DTD SVG 1.1//EN"
  "http://www.w3.org/Graphics/SVG/1.1/DTD/svg11.dtd">
<!-- Created with matplotlib (https://matplotlib.org/) -->
<svg height="504pt" version="1.1" viewBox="0 0 504 504" width="504pt" xmlns="http://www.w3.org/2000/svg" xmlns:xlink="http://www.w3.org/1999/xlink">
 <defs>
  <style type="text/css">
*{stroke-linecap:butt;stroke-linejoin:round;}
  </style>
 </defs>
 <g id="figure_1">
  <g id="patch_1">
   <path d="M 0 504 
L 504 504 
L 504 0 
L 0 0 
z
" style="fill:#ffffff;"/>
  </g>
  <g id="axes_1">
   <g id="PathCollection_1">
    <defs>
     <path d="M 0 1.581139 
C 0.419323 1.581139 0.821528 1.41454 1.118034 1.118034 
C 1.41454 0.821528 1.581139 0.419323 1.581139 0 
C 1.581139 -0.419323 1.41454 -0.821528 1.118034 -1.118034 
C 0.821528 -1.41454 0.419323 -1.581139 0 -1.581139 
C -0.419323 -1.581139 -0.821528 -1.41454 -1.118034 -1.118034 
C -1.41454 -0.821528 -1.581139 -0.419323 -1.581139 0 
C -1.581139 0.419323 -1.41454 0.821528 -1.118034 1.118034 
C -0.821528 1.41454 -0.419323 1.581139 0 1.581139 
z
" id="C0_0_62643832ca"/>
    </defs>
    <g clip-path="url(#p9966de4897)">
     <use style="fill:#3b4cc0;stroke:#3b4cc0;stroke-width:0.5;" x="411.465591" xlink:href="#C0_0_62643832ca" y="83.151427"/>
    </g>
    <g clip-path="url(#p9966de4897)">
     <use style="fill:#3b4cc0;stroke:#3b4cc0;stroke-width:0.5;" x="363.358992" xlink:href="#C0_0_62643832ca" y="83.785914"/>
    </g>
    <g clip-path="url(#p9966de4897)">
     <use style="fill:#3b4cc0;stroke:#3b4cc0;stroke-width:0.5;" x="411.973979" xlink:href="#C0_0_62643832ca" y="94.670464"/>
    </g>
    <g clip-path="url(#p9966de4897)">
     <use style="fill:#3b4cc0;stroke:#3b4cc0;stroke-width:0.5;" x="421.241004" xlink:href="#C0_0_62643832ca" y="105.392298"/>
    </g>
    <g clip-path="url(#p9966de4897)">
     <use style="fill:#3b4cc0;stroke:#3b4cc0;stroke-width:0.5;" x="405.496598" xlink:href="#C0_0_62643832ca" y="84.908954"/>
    </g>
    <g clip-path="url(#p9966de4897)">
     <use style="fill:#3b4cc0;stroke:#3b4cc0;stroke-width:0.5;" x="375.917541" xlink:href="#C0_0_62643832ca" y="163.709686"/>
    </g>
    <g clip-path="url(#p9966de4897)">
     <use style="fill:#3b4cc0;stroke:#3b4cc0;stroke-width:0.5;" x="404.683361" xlink:href="#C0_0_62643832ca" y="85.522223"/>
    </g>
    <g clip-path="url(#p9966de4897)">
     <use style="fill:#3b4cc0;stroke:#3b4cc0;stroke-width:0.5;" x="421.970883" xlink:href="#C0_0_62643832ca" y="94.819671"/>
    </g>
    <g clip-path="url(#p9966de4897)">
     <use style="fill:#3b4cc0;stroke:#3b4cc0;stroke-width:0.5;" x="363.2426" xlink:href="#C0_0_62643832ca" y="84.093433"/>
    </g>
    <g clip-path="url(#p9966de4897)">
     <use style="fill:#3b4cc0;stroke:#3b4cc0;stroke-width:0.5;" x="424.012393" xlink:href="#C0_0_62643832ca" y="98.843067"/>
    </g>
    <g clip-path="url(#p9966de4897)">
     <use style="fill:#3b4cc0;stroke:#3b4cc0;stroke-width:0.5;" x="375.989135" xlink:href="#C0_0_62643832ca" y="163.684606"/>
    </g>
    <g clip-path="url(#p9966de4897)">
     <use style="fill:#3b4cc0;stroke:#3b4cc0;stroke-width:0.5;" x="417.404015" xlink:href="#C0_0_62643832ca" y="86.759246"/>
    </g>
    <g clip-path="url(#p9966de4897)">
     <use style="fill:#3b4cc0;stroke:#3b4cc0;stroke-width:0.5;" x="363.085375" xlink:href="#C0_0_62643832ca" y="84.215435"/>
    </g>
    <g clip-path="url(#p9966de4897)">
     <use style="fill:#3b4cc0;stroke:#3b4cc0;stroke-width:0.5;" x="363.316815" xlink:href="#C0_0_62643832ca" y="84.101917"/>
    </g>
    <g clip-path="url(#p9966de4897)">
     <use style="fill:#3b4cc0;stroke:#3b4cc0;stroke-width:0.5;" x="374.986681" xlink:href="#C0_0_62643832ca" y="158.558419"/>
    </g>
    <g clip-path="url(#p9966de4897)">
     <use style="fill:#3b4cc0;stroke:#3b4cc0;stroke-width:0.5;" x="375.141332" xlink:href="#C0_0_62643832ca" y="158.585275"/>
    </g>
    <g clip-path="url(#p9966de4897)">
     <use style="fill:#3b4cc0;stroke:#3b4cc0;stroke-width:0.5;" x="371.913711" xlink:href="#C0_0_62643832ca" y="160.621393"/>
    </g>
    <g clip-path="url(#p9966de4897)">
     <use style="fill:#3b4cc0;stroke:#3b4cc0;stroke-width:0.5;" x="419.502401" xlink:href="#C0_0_62643832ca" y="88.851775"/>
    </g>
    <g clip-path="url(#p9966de4897)">
     <use style="fill:#3b4cc0;stroke:#3b4cc0;stroke-width:0.5;" x="371.863387" xlink:href="#C0_0_62643832ca" y="161.288568"/>
    </g>
    <g clip-path="url(#p9966de4897)">
     <use style="fill:#3b4cc0;stroke:#3b4cc0;stroke-width:0.5;" x="367.581156" xlink:href="#C0_0_62643832ca" y="122.579498"/>
    </g>
    <g clip-path="url(#p9966de4897)">
     <use style="fill:#3b4cc0;stroke:#3b4cc0;stroke-width:0.5;" x="408.910562" xlink:href="#C0_0_62643832ca" y="147.129767"/>
    </g>
    <g clip-path="url(#p9966de4897)">
     <use style="fill:#3b4cc0;stroke:#3b4cc0;stroke-width:0.5;" x="367.592178" xlink:href="#C0_0_62643832ca" y="122.589022"/>
    </g>
    <g clip-path="url(#p9966de4897)">
     <use style="fill:#3b4cc0;stroke:#3b4cc0;stroke-width:0.5;" x="408.454914" xlink:href="#C0_0_62643832ca" y="108.331383"/>
    </g>
    <g clip-path="url(#p9966de4897)">
     <use style="fill:#3b4cc0;stroke:#3b4cc0;stroke-width:0.5;" x="401.08618" xlink:href="#C0_0_62643832ca" y="90.150388"/>
    </g>
    <g clip-path="url(#p9966de4897)">
     <use style="fill:#3b4cc0;stroke:#3b4cc0;stroke-width:0.5;" x="416.30974" xlink:href="#C0_0_62643832ca" y="107.233827"/>
    </g>
    <g clip-path="url(#p9966de4897)">
     <use style="fill:#3b4cc0;stroke:#3b4cc0;stroke-width:0.5;" x="362.716985" xlink:href="#C0_0_62643832ca" y="84.662529"/>
    </g>
    <g clip-path="url(#p9966de4897)">
     <use style="fill:#3b4cc0;stroke:#3b4cc0;stroke-width:0.5;" x="405.133466" xlink:href="#C0_0_62643832ca" y="106.399073"/>
    </g>
    <g clip-path="url(#p9966de4897)">
     <use style="fill:#3b4cc0;stroke:#3b4cc0;stroke-width:0.5;" x="408.887619" xlink:href="#C0_0_62643832ca" y="147.135979"/>
    </g>
    <g clip-path="url(#p9966de4897)">
     <use style="fill:#3b4cc0;stroke:#3b4cc0;stroke-width:0.5;" x="408.897061" xlink:href="#C0_0_62643832ca" y="147.128433"/>
    </g>
    <g clip-path="url(#p9966de4897)">
     <use style="fill:#3b4cc0;stroke:#3b4cc0;stroke-width:0.5;" x="403.874355" xlink:href="#C0_0_62643832ca" y="103.988215"/>
    </g>
    <g clip-path="url(#p9966de4897)">
     <use style="fill:#3b4cc0;stroke:#3b4cc0;stroke-width:0.5;" x="415.521246" xlink:href="#C0_0_62643832ca" y="107.684752"/>
    </g>
    <g clip-path="url(#p9966de4897)">
     <use style="fill:#3b4cc0;stroke:#3b4cc0;stroke-width:0.5;" x="408.997946" xlink:href="#C0_0_62643832ca" y="147.182843"/>
    </g>
    <g clip-path="url(#p9966de4897)">
     <use style="fill:#3b4cc0;stroke:#3b4cc0;stroke-width:0.5;" x="377.43282" xlink:href="#C0_0_62643832ca" y="161.865962"/>
    </g>
    <g clip-path="url(#p9966de4897)">
     <use style="fill:#3b4cc0;stroke:#3b4cc0;stroke-width:0.5;" x="372.221403" xlink:href="#C0_0_62643832ca" y="159.804275"/>
    </g>
    <g clip-path="url(#p9966de4897)">
     <use style="fill:#3b4cc0;stroke:#3b4cc0;stroke-width:0.5;" x="401.481004" xlink:href="#C0_0_62643832ca" y="92.498973"/>
    </g>
    <g clip-path="url(#p9966de4897)">
     <use style="fill:#3b4cc0;stroke:#3b4cc0;stroke-width:0.5;" x="409.717215" xlink:href="#C0_0_62643832ca" y="95.589732"/>
    </g>
    <g clip-path="url(#p9966de4897)">
     <use style="fill:#3b4cc0;stroke:#3b4cc0;stroke-width:0.5;" x="409.017984" xlink:href="#C0_0_62643832ca" y="147.177019"/>
    </g>
    <g clip-path="url(#p9966de4897)">
     <use style="fill:#3b4cc0;stroke:#3b4cc0;stroke-width:0.5;" x="413.066186" xlink:href="#C0_0_62643832ca" y="100.990424"/>
    </g>
    <g clip-path="url(#p9966de4897)">
     <use style="fill:#3b4cc0;stroke:#3b4cc0;stroke-width:0.5;" x="363.163506" xlink:href="#C0_0_62643832ca" y="84.199305"/>
    </g>
    <g clip-path="url(#p9966de4897)">
     <use style="fill:#3b4cc0;stroke:#3b4cc0;stroke-width:0.5;" x="401.535117" xlink:href="#C0_0_62643832ca" y="98.819321"/>
    </g>
    <g clip-path="url(#p9966de4897)">
     <use style="fill:#3b4cc0;stroke:#3b4cc0;stroke-width:0.5;" x="401.559356" xlink:href="#C0_0_62643832ca" y="98.785354"/>
    </g>
    <g clip-path="url(#p9966de4897)">
     <use style="fill:#3b4cc0;stroke:#3b4cc0;stroke-width:0.5;" x="379.068216" xlink:href="#C0_0_62643832ca" y="100.959063"/>
    </g>
    <g clip-path="url(#p9966de4897)">
     <use style="fill:#3b4cc0;stroke:#3b4cc0;stroke-width:0.5;" x="414.099952" xlink:href="#C0_0_62643832ca" y="83.286009"/>
    </g>
    <g clip-path="url(#p9966de4897)">
     <use style="fill:#3b4cc0;stroke:#3b4cc0;stroke-width:0.5;" x="435.797197" xlink:href="#C0_0_62643832ca" y="78.167708"/>
    </g>
    <g clip-path="url(#p9966de4897)">
     <use style="fill:#3b4cc0;stroke:#3b4cc0;stroke-width:0.5;" x="367.600862" xlink:href="#C0_0_62643832ca" y="122.58136"/>
    </g>
    <g clip-path="url(#p9966de4897)">
     <use style="fill:#3b4cc0;stroke:#3b4cc0;stroke-width:0.5;" x="363.531391" xlink:href="#C0_0_62643832ca" y="83.649193"/>
    </g>
    <g clip-path="url(#p9966de4897)">
     <use style="fill:#3b4cc0;stroke:#3b4cc0;stroke-width:0.5;" x="367.611173" xlink:href="#C0_0_62643832ca" y="122.584446"/>
    </g>
    <g clip-path="url(#p9966de4897)">
     <use style="fill:#3b4cc0;stroke:#3b4cc0;stroke-width:0.5;" x="424.170155" xlink:href="#C0_0_62643832ca" y="101.016528"/>
    </g>
    <g clip-path="url(#p9966de4897)">
     <use style="fill:#3b4cc0;stroke:#3b4cc0;stroke-width:0.5;" x="377.437494" xlink:href="#C0_0_62643832ca" y="162.14823"/>
    </g>
    <g clip-path="url(#p9966de4897)">
     <use style="fill:#3b4cc0;stroke:#3b4cc0;stroke-width:0.5;" x="422.090417" xlink:href="#C0_0_62643832ca" y="91.280609"/>
    </g>
    <g clip-path="url(#p9966de4897)">
     <use style="fill:#dddcdc;stroke:#dddcdc;stroke-width:0.5;" x="94.699589" xlink:href="#C0_0_62643832ca" y="281.916786"/>
    </g>
    <g clip-path="url(#p9966de4897)">
     <use style="fill:#dddcdc;stroke:#dddcdc;stroke-width:0.5;" x="80.802803" xlink:href="#C0_0_62643832ca" y="330.496941"/>
    </g>
    <g clip-path="url(#p9966de4897)">
     <use style="fill:#dddcdc;stroke:#dddcdc;stroke-width:0.5;" x="94.706482" xlink:href="#C0_0_62643832ca" y="281.938008"/>
    </g>
    <g clip-path="url(#p9966de4897)">
     <use style="fill:#dddcdc;stroke:#dddcdc;stroke-width:0.5;" x="142.77916" xlink:href="#C0_0_62643832ca" y="413.730504"/>
    </g>
    <g clip-path="url(#p9966de4897)">
     <use style="fill:#dddcdc;stroke:#dddcdc;stroke-width:0.5;" x="116.633193" xlink:href="#C0_0_62643832ca" y="313.65921"/>
    </g>
    <g clip-path="url(#p9966de4897)">
     <use style="fill:#dddcdc;stroke:#dddcdc;stroke-width:0.5;" x="102.951662" xlink:href="#C0_0_62643832ca" y="403.529671"/>
    </g>
    <g clip-path="url(#p9966de4897)">
     <use style="fill:#dddcdc;stroke:#dddcdc;stroke-width:0.5;" x="127.366672" xlink:href="#C0_0_62643832ca" y="264.992616"/>
    </g>
    <g clip-path="url(#p9966de4897)">
     <use style="fill:#dddcdc;stroke:#dddcdc;stroke-width:0.5;" x="167.085177" xlink:href="#C0_0_62643832ca" y="427.194848"/>
    </g>
    <g clip-path="url(#p9966de4897)">
     <use style="fill:#dddcdc;stroke:#dddcdc;stroke-width:0.5;" x="116.635901" xlink:href="#C0_0_62643832ca" y="313.654157"/>
    </g>
    <g clip-path="url(#p9966de4897)">
     <use style="fill:#dddcdc;stroke:#dddcdc;stroke-width:0.5;" x="99.272111" xlink:href="#C0_0_62643832ca" y="399.653078"/>
    </g>
    <g clip-path="url(#p9966de4897)">
     <use style="fill:#dddcdc;stroke:#dddcdc;stroke-width:0.5;" x="167.112293" xlink:href="#C0_0_62643832ca" y="427.201564"/>
    </g>
    <g clip-path="url(#p9966de4897)">
     <use style="fill:#dddcdc;stroke:#dddcdc;stroke-width:0.5;" x="97.030663" xlink:href="#C0_0_62643832ca" y="395.655537"/>
    </g>
    <g clip-path="url(#p9966de4897)">
     <use style="fill:#dddcdc;stroke:#dddcdc;stroke-width:0.5;" x="142.729463" xlink:href="#C0_0_62643832ca" y="413.695219"/>
    </g>
    <g clip-path="url(#p9966de4897)">
     <use style="fill:#dddcdc;stroke:#dddcdc;stroke-width:0.5;" x="138.559913" xlink:href="#C0_0_62643832ca" y="355.212788"/>
    </g>
    <g clip-path="url(#p9966de4897)">
     <use style="fill:#dddcdc;stroke:#dddcdc;stroke-width:0.5;" x="111.353206" xlink:href="#C0_0_62643832ca" y="400.698411"/>
    </g>
    <g clip-path="url(#p9966de4897)">
     <use style="fill:#dddcdc;stroke:#dddcdc;stroke-width:0.5;" x="81.048762" xlink:href="#C0_0_62643832ca" y="330.554429"/>
    </g>
    <g clip-path="url(#p9966de4897)">
     <use style="fill:#dddcdc;stroke:#dddcdc;stroke-width:0.5;" x="99.765616" xlink:href="#C0_0_62643832ca" y="399.905582"/>
    </g>
    <g clip-path="url(#p9966de4897)">
     <use style="fill:#dddcdc;stroke:#dddcdc;stroke-width:0.5;" x="109.111174" xlink:href="#C0_0_62643832ca" y="402.827467"/>
    </g>
    <g clip-path="url(#p9966de4897)">
     <use style="fill:#dddcdc;stroke:#dddcdc;stroke-width:0.5;" x="164.800089" xlink:href="#C0_0_62643832ca" y="404.256722"/>
    </g>
    <g clip-path="url(#p9966de4897)">
     <use style="fill:#dddcdc;stroke:#dddcdc;stroke-width:0.5;" x="142.711905" xlink:href="#C0_0_62643832ca" y="413.744262"/>
    </g>
    <g clip-path="url(#p9966de4897)">
     <use style="fill:#dddcdc;stroke:#dddcdc;stroke-width:0.5;" x="191.40554" xlink:href="#C0_0_62643832ca" y="322.284175"/>
    </g>
    <g clip-path="url(#p9966de4897)">
     <use style="fill:#dddcdc;stroke:#dddcdc;stroke-width:0.5;" x="107.015661" xlink:href="#C0_0_62643832ca" y="403.630347"/>
    </g>
    <g clip-path="url(#p9966de4897)">
     <use style="fill:#dddcdc;stroke:#dddcdc;stroke-width:0.5;" x="176.705743" xlink:href="#C0_0_62643832ca" y="286.441914"/>
    </g>
    <g clip-path="url(#p9966de4897)">
     <use style="fill:#dddcdc;stroke:#dddcdc;stroke-width:0.5;" x="138.553455" xlink:href="#C0_0_62643832ca" y="355.164637"/>
    </g>
    <g clip-path="url(#p9966de4897)">
     <use style="fill:#dddcdc;stroke:#dddcdc;stroke-width:0.5;" x="92.505015" xlink:href="#C0_0_62643832ca" y="357.190992"/>
    </g>
    <g clip-path="url(#p9966de4897)">
     <use style="fill:#dddcdc;stroke:#dddcdc;stroke-width:0.5;" x="92.474785" xlink:href="#C0_0_62643832ca" y="357.203904"/>
    </g>
    <g clip-path="url(#p9966de4897)">
     <use style="fill:#dddcdc;stroke:#dddcdc;stroke-width:0.5;" x="116.635949" xlink:href="#C0_0_62643832ca" y="313.656399"/>
    </g>
    <g clip-path="url(#p9966de4897)">
     <use style="fill:#dddcdc;stroke:#dddcdc;stroke-width:0.5;" x="147.583125" xlink:href="#C0_0_62643832ca" y="287.670515"/>
    </g>
    <g clip-path="url(#p9966de4897)">
     <use style="fill:#dddcdc;stroke:#dddcdc;stroke-width:0.5;" x="98.472232" xlink:href="#C0_0_62643832ca" y="390.963982"/>
    </g>
    <g clip-path="url(#p9966de4897)">
     <use style="fill:#dddcdc;stroke:#dddcdc;stroke-width:0.5;" x="98.74678" xlink:href="#C0_0_62643832ca" y="390.644412"/>
    </g>
    <g clip-path="url(#p9966de4897)">
     <use style="fill:#dddcdc;stroke:#dddcdc;stroke-width:0.5;" x="142.779835" xlink:href="#C0_0_62643832ca" y="413.54657"/>
    </g>
    <g clip-path="url(#p9966de4897)">
     <use style="fill:#dddcdc;stroke:#dddcdc;stroke-width:0.5;" x="142.765959" xlink:href="#C0_0_62643832ca" y="413.549222"/>
    </g>
    <g clip-path="url(#p9966de4897)">
     <use style="fill:#dddcdc;stroke:#dddcdc;stroke-width:0.5;" x="113.72832" xlink:href="#C0_0_62643832ca" y="397.017432"/>
    </g>
    <g clip-path="url(#p9966de4897)">
     <use style="fill:#dddcdc;stroke:#dddcdc;stroke-width:0.5;" x="167.626717" xlink:href="#C0_0_62643832ca" y="323.500508"/>
    </g>
    <g clip-path="url(#p9966de4897)">
     <use style="fill:#dddcdc;stroke:#dddcdc;stroke-width:0.5;" x="115.694588" xlink:href="#C0_0_62643832ca" y="391.36453"/>
    </g>
    <g clip-path="url(#p9966de4897)">
     <use style="fill:#dddcdc;stroke:#dddcdc;stroke-width:0.5;" x="199.245171" xlink:href="#C0_0_62643832ca" y="324.787047"/>
    </g>
    <g clip-path="url(#p9966de4897)">
     <use style="fill:#dddcdc;stroke:#dddcdc;stroke-width:0.5;" x="94.702416" xlink:href="#C0_0_62643832ca" y="281.938638"/>
    </g>
    <g clip-path="url(#p9966de4897)">
     <use style="fill:#dddcdc;stroke:#dddcdc;stroke-width:0.5;" x="164.75106" xlink:href="#C0_0_62643832ca" y="404.24771"/>
    </g>
    <g clip-path="url(#p9966de4897)">
     <use style="fill:#dddcdc;stroke:#dddcdc;stroke-width:0.5;" x="101.369219" xlink:href="#C0_0_62643832ca" y="388.293733"/>
    </g>
    <g clip-path="url(#p9966de4897)">
     <use style="fill:#dddcdc;stroke:#dddcdc;stroke-width:0.5;" x="142.787734" xlink:href="#C0_0_62643832ca" y="413.500862"/>
    </g>
    <g clip-path="url(#p9966de4897)">
     <use style="fill:#dddcdc;stroke:#dddcdc;stroke-width:0.5;" x="113.693107" xlink:href="#C0_0_62643832ca" y="396.948195"/>
    </g>
    <g clip-path="url(#p9966de4897)">
     <use style="fill:#dddcdc;stroke:#dddcdc;stroke-width:0.5;" x="138.54987" xlink:href="#C0_0_62643832ca" y="355.169453"/>
    </g>
    <g clip-path="url(#p9966de4897)">
     <use style="fill:#dddcdc;stroke:#dddcdc;stroke-width:0.5;" x="113.599241" xlink:href="#C0_0_62643832ca" y="387.466828"/>
    </g>
    <g clip-path="url(#p9966de4897)">
     <use style="fill:#dddcdc;stroke:#dddcdc;stroke-width:0.5;" x="167.064006" xlink:href="#C0_0_62643832ca" y="427.170559"/>
    </g>
    <g clip-path="url(#p9966de4897)">
     <use style="fill:#dddcdc;stroke:#dddcdc;stroke-width:0.5;" x="115.614665" xlink:href="#C0_0_62643832ca" y="391.095212"/>
    </g>
    <g clip-path="url(#p9966de4897)">
     <use style="fill:#dddcdc;stroke:#dddcdc;stroke-width:0.5;" x="106.181952" xlink:href="#C0_0_62643832ca" y="386.065227"/>
    </g>
    <g clip-path="url(#p9966de4897)">
     <use style="fill:#dddcdc;stroke:#dddcdc;stroke-width:0.5;" x="105.895167" xlink:href="#C0_0_62643832ca" y="386.241282"/>
    </g>
    <g clip-path="url(#p9966de4897)">
     <use style="fill:#dddcdc;stroke:#dddcdc;stroke-width:0.5;" x="92.517032" xlink:href="#C0_0_62643832ca" y="357.177987"/>
    </g>
    <g clip-path="url(#p9966de4897)">
     <use style="fill:#dddcdc;stroke:#dddcdc;stroke-width:0.5;" x="167.094561" xlink:href="#C0_0_62643832ca" y="427.15401"/>
    </g>
    <g clip-path="url(#p9966de4897)">
     <use style="fill:#dddcdc;stroke:#dddcdc;stroke-width:0.5;" x="110.482081" xlink:href="#C0_0_62643832ca" y="385.728084"/>
    </g>
    <g clip-path="url(#p9966de4897)">
     <use style="fill:#b40426;stroke:#b40426;stroke-width:0.5;" x="117.405526" xlink:href="#C0_0_62643832ca" y="227.071616"/>
    </g>
    <g clip-path="url(#p9966de4897)">
     <use style="fill:#b40426;stroke:#b40426;stroke-width:0.5;" x="167.622564" xlink:href="#C0_0_62643832ca" y="323.490977"/>
    </g>
    <g clip-path="url(#p9966de4897)">
     <use style="fill:#b40426;stroke:#b40426;stroke-width:0.5;" x="160.208117" xlink:href="#C0_0_62643832ca" y="247.168514"/>
    </g>
    <g clip-path="url(#p9966de4897)">
     <use style="fill:#b40426;stroke:#b40426;stroke-width:0.5;" x="147.148874" xlink:href="#C0_0_62643832ca" y="287.763537"/>
    </g>
    <g clip-path="url(#p9966de4897)">
     <use style="fill:#b40426;stroke:#b40426;stroke-width:0.5;" x="131.817837" xlink:href="#C0_0_62643832ca" y="223.828792"/>
    </g>
    <g clip-path="url(#p9966de4897)">
     <use style="fill:#b40426;stroke:#b40426;stroke-width:0.5;" x="172.684217" xlink:href="#C0_0_62643832ca" y="220.448185"/>
    </g>
    <g clip-path="url(#p9966de4897)">
     <use style="fill:#b40426;stroke:#b40426;stroke-width:0.5;" x="175.576486" xlink:href="#C0_0_62643832ca" y="430.872292"/>
    </g>
    <g clip-path="url(#p9966de4897)">
     <use style="fill:#b40426;stroke:#b40426;stroke-width:0.5;" x="172.683613" xlink:href="#C0_0_62643832ca" y="220.442609"/>
    </g>
    <g clip-path="url(#p9966de4897)">
     <use style="fill:#b40426;stroke:#b40426;stroke-width:0.5;" x="156.545336" xlink:href="#C0_0_62643832ca" y="251.273644"/>
    </g>
    <g clip-path="url(#p9966de4897)">
     <use style="fill:#b40426;stroke:#b40426;stroke-width:0.5;" x="139.204461" xlink:href="#C0_0_62643832ca" y="209.534666"/>
    </g>
    <g clip-path="url(#p9966de4897)">
     <use style="fill:#b40426;stroke:#b40426;stroke-width:0.5;" x="127.381034" xlink:href="#C0_0_62643832ca" y="264.998433"/>
    </g>
    <g clip-path="url(#p9966de4897)">
     <use style="fill:#b40426;stroke:#b40426;stroke-width:0.5;" x="145.995021" xlink:href="#C0_0_62643832ca" y="291.321243"/>
    </g>
    <g clip-path="url(#p9966de4897)">
     <use style="fill:#b40426;stroke:#b40426;stroke-width:0.5;" x="149.525156" xlink:href="#C0_0_62643832ca" y="288.6513"/>
    </g>
    <g clip-path="url(#p9966de4897)">
     <use style="fill:#b40426;stroke:#b40426;stroke-width:0.5;" x="181.398376" xlink:href="#C0_0_62643832ca" y="333.116526"/>
    </g>
    <g clip-path="url(#p9966de4897)">
     <use style="fill:#b40426;stroke:#b40426;stroke-width:0.5;" x="151.170456" xlink:href="#C0_0_62643832ca" y="336.004777"/>
    </g>
    <g clip-path="url(#p9966de4897)">
     <use style="fill:#b40426;stroke:#b40426;stroke-width:0.5;" x="101.893657" xlink:href="#C0_0_62643832ca" y="253.650126"/>
    </g>
    <g clip-path="url(#p9966de4897)">
     <use style="fill:#b40426;stroke:#b40426;stroke-width:0.5;" x="146.068877" xlink:href="#C0_0_62643832ca" y="291.446428"/>
    </g>
    <g clip-path="url(#p9966de4897)">
     <use style="fill:#b40426;stroke:#b40426;stroke-width:0.5;" x="151.179986" xlink:href="#C0_0_62643832ca" y="202.507415"/>
    </g>
    <g clip-path="url(#p9966de4897)">
     <use style="fill:#b40426;stroke:#b40426;stroke-width:0.5;" x="151.630849" xlink:href="#C0_0_62643832ca" y="207.758594"/>
    </g>
    <g clip-path="url(#p9966de4897)">
     <use style="fill:#b40426;stroke:#b40426;stroke-width:0.5;" x="154.204345" xlink:href="#C0_0_62643832ca" y="375.910807"/>
    </g>
    <g clip-path="url(#p9966de4897)">
     <use style="fill:#b40426;stroke:#b40426;stroke-width:0.5;" x="117.404752" xlink:href="#C0_0_62643832ca" y="227.074097"/>
    </g>
    <g clip-path="url(#p9966de4897)">
     <use style="fill:#b40426;stroke:#b40426;stroke-width:0.5;" x="167.624396" xlink:href="#C0_0_62643832ca" y="323.481958"/>
    </g>
    <g clip-path="url(#p9966de4897)">
     <use style="fill:#b40426;stroke:#b40426;stroke-width:0.5;" x="172.67723" xlink:href="#C0_0_62643832ca" y="220.453854"/>
    </g>
    <g clip-path="url(#p9966de4897)">
     <use style="fill:#b40426;stroke:#b40426;stroke-width:0.5;" x="149.653867" xlink:href="#C0_0_62643832ca" y="288.934181"/>
    </g>
    <g clip-path="url(#p9966de4897)">
     <use style="fill:#b40426;stroke:#b40426;stroke-width:0.5;" x="140.329267" xlink:href="#C0_0_62643832ca" y="243.050984"/>
    </g>
    <g clip-path="url(#p9966de4897)">
     <use style="fill:#b40426;stroke:#b40426;stroke-width:0.5;" x="161.386638" xlink:href="#C0_0_62643832ca" y="221.081706"/>
    </g>
    <g clip-path="url(#p9966de4897)">
     <use style="fill:#b40426;stroke:#b40426;stroke-width:0.5;" x="146.063497" xlink:href="#C0_0_62643832ca" y="291.447324"/>
    </g>
    <g clip-path="url(#p9966de4897)">
     <use style="fill:#b40426;stroke:#b40426;stroke-width:0.5;" x="167.620673" xlink:href="#C0_0_62643832ca" y="323.481345"/>
    </g>
    <g clip-path="url(#p9966de4897)">
     <use style="fill:#b40426;stroke:#b40426;stroke-width:0.5;" x="149.782409" xlink:href="#C0_0_62643832ca" y="289.410853"/>
    </g>
    <g clip-path="url(#p9966de4897)">
     <use style="fill:#b40426;stroke:#b40426;stroke-width:0.5;" x="172.683104" xlink:href="#C0_0_62643832ca" y="220.454858"/>
    </g>
    <g clip-path="url(#p9966de4897)">
     <use style="fill:#b40426;stroke:#b40426;stroke-width:0.5;" x="172.682386" xlink:href="#C0_0_62643832ca" y="220.453552"/>
    </g>
    <g clip-path="url(#p9966de4897)">
     <use style="fill:#b40426;stroke:#b40426;stroke-width:0.5;" x="169.26839" xlink:href="#C0_0_62643832ca" y="209.708957"/>
    </g>
    <g clip-path="url(#p9966de4897)">
     <use style="fill:#b40426;stroke:#b40426;stroke-width:0.5;" x="119.764438" xlink:href="#C0_0_62643832ca" y="290.134503"/>
    </g>
    <g clip-path="url(#p9966de4897)">
     <use style="fill:#b40426;stroke:#b40426;stroke-width:0.5;" x="116.671817" xlink:href="#C0_0_62643832ca" y="313.639062"/>
    </g>
    <g clip-path="url(#p9966de4897)">
     <use style="fill:#b40426;stroke:#b40426;stroke-width:0.5;" x="138.549839" xlink:href="#C0_0_62643832ca" y="355.163885"/>
    </g>
    <g clip-path="url(#p9966de4897)">
     <use style="fill:#b40426;stroke:#b40426;stroke-width:0.5;" x="151.62974" xlink:href="#C0_0_62643832ca" y="207.747973"/>
    </g>
    <g clip-path="url(#p9966de4897)">
     <use style="fill:#b40426;stroke:#b40426;stroke-width:0.5;" x="101.907079" xlink:href="#C0_0_62643832ca" y="253.631328"/>
    </g>
    <g clip-path="url(#p9966de4897)">
     <use style="fill:#b40426;stroke:#b40426;stroke-width:0.5;" x="127.387074" xlink:href="#C0_0_62643832ca" y="264.993773"/>
    </g>
    <g clip-path="url(#p9966de4897)">
     <use style="fill:#b40426;stroke:#b40426;stroke-width:0.5;" x="167.62468" xlink:href="#C0_0_62643832ca" y="323.482842"/>
    </g>
    <g clip-path="url(#p9966de4897)">
     <use style="fill:#b40426;stroke:#b40426;stroke-width:0.5;" x="127.402477" xlink:href="#C0_0_62643832ca" y="264.995417"/>
    </g>
    <g clip-path="url(#p9966de4897)">
     <use style="fill:#b40426;stroke:#b40426;stroke-width:0.5;" x="101.894557" xlink:href="#C0_0_62643832ca" y="253.64444"/>
    </g>
    <g clip-path="url(#p9966de4897)">
     <use style="fill:#b40426;stroke:#b40426;stroke-width:0.5;" x="101.895126" xlink:href="#C0_0_62643832ca" y="253.644654"/>
    </g>
    <g clip-path="url(#p9966de4897)">
     <use style="fill:#b40426;stroke:#b40426;stroke-width:0.5;" x="167.609087" xlink:href="#C0_0_62643832ca" y="323.461112"/>
    </g>
    <g clip-path="url(#p9966de4897)">
     <use style="fill:#b40426;stroke:#b40426;stroke-width:0.5;" x="117.389167" xlink:href="#C0_0_62643832ca" y="227.025646"/>
    </g>
    <g clip-path="url(#p9966de4897)">
     <use style="fill:#b40426;stroke:#b40426;stroke-width:0.5;" x="117.404049" xlink:href="#C0_0_62643832ca" y="227.060972"/>
    </g>
    <g clip-path="url(#p9966de4897)">
     <use style="fill:#b40426;stroke:#b40426;stroke-width:0.5;" x="119.872744" xlink:href="#C0_0_62643832ca" y="290.091013"/>
    </g>
    <g clip-path="url(#p9966de4897)">
     <use style="fill:#b40426;stroke:#b40426;stroke-width:0.5;" x="156.889523" xlink:href="#C0_0_62643832ca" y="271.458644"/>
    </g>
    <g clip-path="url(#p9966de4897)">
     <use style="fill:#b40426;stroke:#b40426;stroke-width:0.5;" x="145.994974" xlink:href="#C0_0_62643832ca" y="291.321169"/>
    </g>
    <g clip-path="url(#p9966de4897)">
     <use style="fill:#b40426;stroke:#b40426;stroke-width:0.5;" x="101.907269" xlink:href="#C0_0_62643832ca" y="253.644007"/>
    </g>
    <g clip-path="url(#p9966de4897)">
     <use style="fill:#b40426;stroke:#b40426;stroke-width:0.5;" x="167.668076" xlink:href="#C0_0_62643832ca" y="323.49328"/>
    </g>
   </g>
   <g id="text_1">
    <!-- True -->
    <defs>
     <path d="M -0.296875 72.90625 
L 61.375 72.90625 
L 61.375 64.59375 
L 35.5 64.59375 
L 35.5 0 
L 25.59375 0 
L 25.59375 64.59375 
L -0.296875 64.59375 
z
" id="DejaVuSans-84"/>
     <path d="M 41.109375 46.296875 
Q 39.59375 47.171875 37.8125 47.578125 
Q 36.03125 48 33.890625 48 
Q 26.265625 48 22.1875 43.046875 
Q 18.109375 38.09375 18.109375 28.8125 
L 18.109375 0 
L 9.078125 0 
L 9.078125 54.6875 
L 18.109375 54.6875 
L 18.109375 46.1875 
Q 20.953125 51.171875 25.484375 53.578125 
Q 30.03125 56 36.53125 56 
Q 37.453125 56 38.578125 55.875 
Q 39.703125 55.765625 41.0625 55.515625 
z
" id="DejaVuSans-114"/>
     <path d="M 8.5 21.578125 
L 8.5 54.6875 
L 17.484375 54.6875 
L 17.484375 21.921875 
Q 17.484375 14.15625 20.5 10.265625 
Q 23.53125 6.390625 29.59375 6.390625 
Q 36.859375 6.390625 41.078125 11.03125 
Q 45.3125 15.671875 45.3125 23.6875 
L 45.3125 54.6875 
L 54.296875 54.6875 
L 54.296875 0 
L 45.3125 0 
L 45.3125 8.40625 
Q 42.046875 3.421875 37.71875 1 
Q 33.40625 -1.421875 27.6875 -1.421875 
Q 18.265625 -1.421875 13.375 4.4375 
Q 8.5 10.296875 8.5 21.578125 
z
M 31.109375 56 
z
" id="DejaVuSans-117"/>
     <path d="M 56.203125 29.59375 
L 56.203125 25.203125 
L 14.890625 25.203125 
Q 15.484375 15.921875 20.484375 11.0625 
Q 25.484375 6.203125 34.421875 6.203125 
Q 39.59375 6.203125 44.453125 7.46875 
Q 49.3125 8.734375 54.109375 11.28125 
L 54.109375 2.78125 
Q 49.265625 0.734375 44.1875 -0.34375 
Q 39.109375 -1.421875 33.890625 -1.421875 
Q 20.796875 -1.421875 13.15625 6.1875 
Q 5.515625 13.8125 5.515625 26.8125 
Q 5.515625 40.234375 12.765625 48.109375 
Q 20.015625 56 32.328125 56 
Q 43.359375 56 49.78125 48.890625 
Q 56.203125 41.796875 56.203125 29.59375 
z
M 47.21875 32.234375 
Q 47.125 39.59375 43.09375 43.984375 
Q 39.0625 48.390625 32.421875 48.390625 
Q 24.90625 48.390625 20.390625 44.140625 
Q 15.875 39.890625 15.1875 32.171875 
z
" id="DejaVuSans-101"/>
    </defs>
    <g transform="translate(241.965 54.48)scale(0.144 -0.144)">
     <use xlink:href="#DejaVuSans-84"/>
     <use x="60.865234" xlink:href="#DejaVuSans-114"/>
     <use x="101.978516" xlink:href="#DejaVuSans-117"/>
     <use x="165.357422" xlink:href="#DejaVuSans-101"/>
    </g>
   </g>
   <g id="legend_1">
    <g id="patch_2">
     <path d="M 70 127.1925 
L 111.670312 127.1925 
Q 113.670312 127.1925 113.670312 125.1925 
L 113.670312 67.48 
Q 113.670312 65.48 111.670312 65.48 
L 70 65.48 
Q 68 65.48 68 67.48 
L 68 125.1925 
Q 68 127.1925 70 127.1925 
z
" style="fill:#e5e5e5;opacity:0.8;stroke:#cccccc;stroke-linejoin:miter;stroke-width:0.5;"/>
    </g>
    <g id="text_2">
     <!-- Classes -->
     <defs>
      <path d="M 64.40625 67.28125 
L 64.40625 56.890625 
Q 59.421875 61.53125 53.78125 63.8125 
Q 48.140625 66.109375 41.796875 66.109375 
Q 29.296875 66.109375 22.65625 58.46875 
Q 16.015625 50.828125 16.015625 36.375 
Q 16.015625 21.96875 22.65625 14.328125 
Q 29.296875 6.6875 41.796875 6.6875 
Q 48.140625 6.6875 53.78125 8.984375 
Q 59.421875 11.28125 64.40625 15.921875 
L 64.40625 5.609375 
Q 59.234375 2.09375 53.4375 0.328125 
Q 47.65625 -1.421875 41.21875 -1.421875 
Q 24.65625 -1.421875 15.125 8.703125 
Q 5.609375 18.84375 5.609375 36.375 
Q 5.609375 53.953125 15.125 64.078125 
Q 24.65625 74.21875 41.21875 74.21875 
Q 47.75 74.21875 53.53125 72.484375 
Q 59.328125 70.75 64.40625 67.28125 
z
" id="DejaVuSans-67"/>
      <path d="M 9.421875 75.984375 
L 18.40625 75.984375 
L 18.40625 0 
L 9.421875 0 
z
" id="DejaVuSans-108"/>
      <path d="M 34.28125 27.484375 
Q 23.390625 27.484375 19.1875 25 
Q 14.984375 22.515625 14.984375 16.5 
Q 14.984375 11.71875 18.140625 8.90625 
Q 21.296875 6.109375 26.703125 6.109375 
Q 34.1875 6.109375 38.703125 11.40625 
Q 43.21875 16.703125 43.21875 25.484375 
L 43.21875 27.484375 
z
M 52.203125 31.203125 
L 52.203125 0 
L 43.21875 0 
L 43.21875 8.296875 
Q 40.140625 3.328125 35.546875 0.953125 
Q 30.953125 -1.421875 24.3125 -1.421875 
Q 15.921875 -1.421875 10.953125 3.296875 
Q 6 8.015625 6 15.921875 
Q 6 25.140625 12.171875 29.828125 
Q 18.359375 34.515625 30.609375 34.515625 
L 43.21875 34.515625 
L 43.21875 35.40625 
Q 43.21875 41.609375 39.140625 45 
Q 35.0625 48.390625 27.6875 48.390625 
Q 23 48.390625 18.546875 47.265625 
Q 14.109375 46.140625 10.015625 43.890625 
L 10.015625 52.203125 
Q 14.9375 54.109375 19.578125 55.046875 
Q 24.21875 56 28.609375 56 
Q 40.484375 56 46.34375 49.84375 
Q 52.203125 43.703125 52.203125 31.203125 
z
" id="DejaVuSans-97"/>
      <path d="M 44.28125 53.078125 
L 44.28125 44.578125 
Q 40.484375 46.53125 36.375 47.5 
Q 32.28125 48.484375 27.875 48.484375 
Q 21.1875 48.484375 17.84375 46.4375 
Q 14.5 44.390625 14.5 40.28125 
Q 14.5 37.15625 16.890625 35.375 
Q 19.28125 33.59375 26.515625 31.984375 
L 29.59375 31.296875 
Q 39.15625 29.25 43.1875 25.515625 
Q 47.21875 21.78125 47.21875 15.09375 
Q 47.21875 7.46875 41.1875 3.015625 
Q 35.15625 -1.421875 24.609375 -1.421875 
Q 20.21875 -1.421875 15.453125 -0.5625 
Q 10.6875 0.296875 5.421875 2 
L 5.421875 11.28125 
Q 10.40625 8.6875 15.234375 7.390625 
Q 20.0625 6.109375 24.8125 6.109375 
Q 31.15625 6.109375 34.5625 8.28125 
Q 37.984375 10.453125 37.984375 14.40625 
Q 37.984375 18.0625 35.515625 20.015625 
Q 33.0625 21.96875 24.703125 23.78125 
L 21.578125 24.515625 
Q 13.234375 26.265625 9.515625 29.90625 
Q 5.8125 33.546875 5.8125 39.890625 
Q 5.8125 47.609375 11.28125 51.796875 
Q 16.75 56 26.8125 56 
Q 31.78125 56 36.171875 55.265625 
Q 40.578125 54.546875 44.28125 53.078125 
z
" id="DejaVuSans-115"/>
     </defs>
     <g transform="translate(72 77.078438)scale(0.1 -0.1)">
      <use xlink:href="#DejaVuSans-67"/>
      <use x="69.824219" xlink:href="#DejaVuSans-108"/>
      <use x="97.607422" xlink:href="#DejaVuSans-97"/>
      <use x="158.886719" xlink:href="#DejaVuSans-115"/>
      <use x="210.986328" xlink:href="#DejaVuSans-115"/>
      <use x="263.085938" xlink:href="#DejaVuSans-101"/>
      <use x="324.609375" xlink:href="#DejaVuSans-115"/>
     </g>
    </g>
    <g id="line2d_1"/>
    <g id="line2d_2">
     <defs>
      <path d="M 0 3 
C 0.795609 3 1.55874 2.683901 2.12132 2.12132 
C 2.683901 1.55874 3 0.795609 3 0 
C 3 -0.795609 2.683901 -1.55874 2.12132 -2.12132 
C 1.55874 -2.683901 0.795609 -3 0 -3 
C -0.795609 -3 -1.55874 -2.683901 -2.12132 -2.12132 
C -2.683901 -1.55874 -3 -0.795609 -3 0 
C -3 0.795609 -2.683901 1.55874 -2.12132 2.12132 
C -1.55874 2.683901 -0.795609 3 0 3 
z
" id="mf682b9178e" style="stroke:#3b4cc0;stroke-width:0.5;"/>
     </defs>
     <g>
      <use style="fill:#3b4cc0;stroke:#3b4cc0;stroke-width:0.5;" x="83.635156" xlink:href="#mf682b9178e" y="88.256563"/>
     </g>
    </g>
    <g id="text_3">
     <!-- $\mathdefault{0}$ -->
     <defs>
      <path d="M 31.78125 66.40625 
Q 24.171875 66.40625 20.328125 58.90625 
Q 16.5 51.421875 16.5 36.375 
Q 16.5 21.390625 20.328125 13.890625 
Q 24.171875 6.390625 31.78125 6.390625 
Q 39.453125 6.390625 43.28125 13.890625 
Q 47.125 21.390625 47.125 36.375 
Q 47.125 51.421875 43.28125 58.90625 
Q 39.453125 66.40625 31.78125 66.40625 
z
M 31.78125 74.21875 
Q 44.046875 74.21875 50.515625 64.515625 
Q 56.984375 54.828125 56.984375 36.375 
Q 56.984375 17.96875 50.515625 8.265625 
Q 44.046875 -1.421875 31.78125 -1.421875 
Q 19.53125 -1.421875 13.0625 8.265625 
Q 6.59375 17.96875 6.59375 36.375 
Q 6.59375 54.828125 13.0625 64.515625 
Q 19.53125 74.21875 31.78125 74.21875 
z
" id="DejaVuSans-48"/>
     </defs>
     <g transform="translate(101.635156 91.756563)scale(0.1 -0.1)">
      <use transform="translate(0 0.78125)" xlink:href="#DejaVuSans-48"/>
     </g>
    </g>
    <g id="line2d_3"/>
    <g id="line2d_4">
     <defs>
      <path d="M 0 3 
C 0.795609 3 1.55874 2.683901 2.12132 2.12132 
C 2.683901 1.55874 3 0.795609 3 0 
C 3 -0.795609 2.683901 -1.55874 2.12132 -2.12132 
C 1.55874 -2.683901 0.795609 -3 0 -3 
C -0.795609 -3 -1.55874 -2.683901 -2.12132 -2.12132 
C -2.683901 -1.55874 -3 -0.795609 -3 0 
C -3 0.795609 -2.683901 1.55874 -2.12132 2.12132 
C -1.55874 2.683901 -0.795609 3 0 3 
z
" id="maa22be5f30" style="stroke:#dddcdc;stroke-width:0.5;"/>
     </defs>
     <g>
      <use style="fill:#dddcdc;stroke:#dddcdc;stroke-width:0.5;" x="83.635156" xlink:href="#maa22be5f30" y="102.934688"/>
     </g>
    </g>
    <g id="text_4">
     <!-- $\mathdefault{1}$ -->
     <defs>
      <path d="M 12.40625 8.296875 
L 28.515625 8.296875 
L 28.515625 63.921875 
L 10.984375 60.40625 
L 10.984375 69.390625 
L 28.421875 72.90625 
L 38.28125 72.90625 
L 38.28125 8.296875 
L 54.390625 8.296875 
L 54.390625 0 
L 12.40625 0 
z
" id="DejaVuSans-49"/>
     </defs>
     <g transform="translate(101.635156 106.434688)scale(0.1 -0.1)">
      <use transform="translate(0 0.09375)" xlink:href="#DejaVuSans-49"/>
     </g>
    </g>
    <g id="line2d_5"/>
    <g id="line2d_6">
     <defs>
      <path d="M 0 3 
C 0.795609 3 1.55874 2.683901 2.12132 2.12132 
C 2.683901 1.55874 3 0.795609 3 0 
C 3 -0.795609 2.683901 -1.55874 2.12132 -2.12132 
C 1.55874 -2.683901 0.795609 -3 0 -3 
C -0.795609 -3 -1.55874 -2.683901 -2.12132 -2.12132 
C -2.683901 -1.55874 -3 -0.795609 -3 0 
C -3 0.795609 -2.683901 1.55874 -2.12132 2.12132 
C -1.55874 2.683901 -0.795609 3 0 3 
z
" id="m077ef63bcd" style="stroke:#b40426;stroke-width:0.5;"/>
     </defs>
     <g>
      <use style="fill:#b40426;stroke:#b40426;stroke-width:0.5;" x="83.635156" xlink:href="#m077ef63bcd" y="117.612813"/>
     </g>
    </g>
    <g id="text_5">
     <!-- $\mathdefault{2}$ -->
     <defs>
      <path d="M 19.1875 8.296875 
L 53.609375 8.296875 
L 53.609375 0 
L 7.328125 0 
L 7.328125 8.296875 
Q 12.9375 14.109375 22.625 23.890625 
Q 32.328125 33.6875 34.8125 36.53125 
Q 39.546875 41.84375 41.421875 45.53125 
Q 43.3125 49.21875 43.3125 52.78125 
Q 43.3125 58.59375 39.234375 62.25 
Q 35.15625 65.921875 28.609375 65.921875 
Q 23.96875 65.921875 18.8125 64.3125 
Q 13.671875 62.703125 7.8125 59.421875 
L 7.8125 69.390625 
Q 13.765625 71.78125 18.9375 73 
Q 24.125 74.21875 28.421875 74.21875 
Q 39.75 74.21875 46.484375 68.546875 
Q 53.21875 62.890625 53.21875 53.421875 
Q 53.21875 48.921875 51.53125 44.890625 
Q 49.859375 40.875 45.40625 35.40625 
Q 44.1875 33.984375 37.640625 27.21875 
Q 31.109375 20.453125 19.1875 8.296875 
z
" id="DejaVuSans-50"/>
     </defs>
     <g transform="translate(101.635156 121.112813)scale(0.1 -0.1)">
      <use transform="translate(0 0.78125)" xlink:href="#DejaVuSans-50"/>
     </g>
    </g>
   </g>
   <g id="legend_2">
    <g id="patch_3">
     <path d="M 70 127.1925 
L 111.670312 127.1925 
Q 113.670312 127.1925 113.670312 125.1925 
L 113.670312 67.48 
Q 113.670312 65.48 111.670312 65.48 
L 70 65.48 
Q 68 65.48 68 67.48 
L 68 125.1925 
Q 68 127.1925 70 127.1925 
z
" style="fill:#e5e5e5;opacity:0.8;stroke:#cccccc;stroke-linejoin:miter;stroke-width:0.5;"/>
    </g>
    <g id="text_6">
     <!-- Classes -->
     <g transform="translate(72 77.078438)scale(0.1 -0.1)">
      <use xlink:href="#DejaVuSans-67"/>
      <use x="69.824219" xlink:href="#DejaVuSans-108"/>
      <use x="97.607422" xlink:href="#DejaVuSans-97"/>
      <use x="158.886719" xlink:href="#DejaVuSans-115"/>
      <use x="210.986328" xlink:href="#DejaVuSans-115"/>
      <use x="263.085938" xlink:href="#DejaVuSans-101"/>
      <use x="324.609375" xlink:href="#DejaVuSans-115"/>
     </g>
    </g>
    <g id="line2d_7"/>
    <g id="line2d_8">
     <g>
      <use style="fill:#3b4cc0;stroke:#3b4cc0;stroke-width:0.5;" x="83.635156" xlink:href="#mf682b9178e" y="88.256563"/>
     </g>
    </g>
    <g id="text_7">
     <!-- $\mathdefault{0}$ -->
     <g transform="translate(101.635156 91.756563)scale(0.1 -0.1)">
      <use transform="translate(0 0.78125)" xlink:href="#DejaVuSans-48"/>
     </g>
    </g>
    <g id="line2d_9"/>
    <g id="line2d_10">
     <g>
      <use style="fill:#dddcdc;stroke:#dddcdc;stroke-width:0.5;" x="83.635156" xlink:href="#maa22be5f30" y="102.934688"/>
     </g>
    </g>
    <g id="text_8">
     <!-- $\mathdefault{1}$ -->
     <g transform="translate(101.635156 106.434688)scale(0.1 -0.1)">
      <use transform="translate(0 0.09375)" xlink:href="#DejaVuSans-49"/>
     </g>
    </g>
    <g id="line2d_11"/>
    <g id="line2d_12">
     <g>
      <use style="fill:#b40426;stroke:#b40426;stroke-width:0.5;" x="83.635156" xlink:href="#m077ef63bcd" y="117.612813"/>
     </g>
    </g>
    <g id="text_9">
     <!-- $\mathdefault{2}$ -->
     <g transform="translate(101.635156 121.112813)scale(0.1 -0.1)">
      <use transform="translate(0 0.78125)" xlink:href="#DejaVuSans-50"/>
     </g>
    </g>
   </g>
  </g>
 </g>
 <defs>
  <clipPath id="p9966de4897">
   <rect height="388.08" width="390.6" x="63" y="60.48"/>
  </clipPath>
 </defs>
</svg>
